<svg width="12" height="12" viewBox="0 0 12 12" fill="none" xmlns="http://www.w3.org/2000/svg">
  <path d="M10 4.5C10 4.5 9.83983 4.83368 9.5 5.25722M6 7C5.19601 7 4.52393 6.79388 3.97431 6.5M6 7C6.80399 7 7.47607 6.79388 8.02569 6.5M6 7V8.75M2 4.5C2 4.5 2.17684 4.86841 2.55314 5.32238M3.97431 6.5L2.5 8M3.97431 6.5C3.3446 6.1633 2.87562 5.71142 2.55314 5.32238M8.02569 6.5L9.25 8M8.02569 6.5C8.6909 6.14433 9.17674 5.66012 9.5 5.25722M2.55314 5.32238L1 6M9.5 5.25722L11 6" stroke="currentColor" stroke-linecap="round"/>
</svg>
