<svg width="12" height="12" viewBox="0 0 12 12" xmlns="http://www.w3.org/2000/svg">
<path d="M4.23246 10.2675C3.22138 10.2675 2.30985 9.65847 1.92286 8.72438C1.53587 7.79029 1.74963 6.71506 2.46446 6.00001L3.52546 4.93901L4.23246 5.64601L3.17196 6.70651C2.79299 7.08548 2.64499 7.63784 2.7837 8.15552C2.92241 8.6732 3.32677 9.07756 3.84445 9.21627C4.36213 9.35498 4.91449 9.20698 5.29346 8.82801L6.35396 7.76751L7.06096 8.47501L6.00046 9.53551C5.5325 10.0058 4.89589 10.2693 4.23246 10.2675ZM4.58596 8.12101L3.87896 7.41401L7.41446 3.87851L8.12146 4.58551L4.58646 8.12051L4.58596 8.12101ZM8.47546 7.06051L7.76796 6.35351L8.82846 5.29301C9.21259 4.91517 9.36456 4.36034 9.22658 3.8395C9.0886 3.31866 8.68187 2.91183 8.16106 2.77373C7.64025 2.63563 7.08539 2.78747 6.70746 3.17151L5.64646 4.23201L4.93946 3.52501L6.00046 2.46401C6.978 1.49499 8.55495 1.49845 9.52824 2.47174C10.5015 3.44502 10.505 5.02197 9.53596 5.99951L8.47546 7.06001V7.06051Z" />
</svg>
