<svg width="12" height="12" viewBox="0 0 12 12" xmlns="http://www.w3.org/2000/svg">
<path d="M10.146 10.8535L5.79305 6.49998H3.50005V5.49998H4.79305L3.79305 4.49998H3.50005C2.67162 4.49998 2.00005 5.17156 2.00005 5.99998C2.00005 6.82841 2.67162 7.49998 3.50005 7.49998H5.00005V8.49998H3.50005C2.24083 8.50102 1.17737 7.56535 1.01807 6.31624C0.858778 5.06714 1.65337 3.89451 2.87255 3.57948L1.14605 1.85348L1.85355 1.14648L10.8535 10.1465L10.1465 10.853L10.146 10.8535ZM10.068 7.94648L9.35405 7.23298C9.89328 6.8594 10.1272 6.17875 9.93155 5.5526C9.73589 4.92646 9.15605 4.50009 8.50005 4.49998H7.00005V3.49998H8.50005C9.56005 3.50011 10.5047 4.1687 10.8574 5.16834C11.21 6.16797 10.8939 7.28131 10.0685 7.94648H10.068Z"/>
</svg>
