<svg fill="currentColor" width="82" height="26" viewBox="0 0 82 26" xmlns="http://www.w3.org/2000/svg">
<path d="M16.0041 23.776C15.6445 22.7287 15.4618 21.3176 15.4618 19.5809V8.73812C15.4618 8.19682 15.0193 7.7575 14.474 7.7575H11.9374C11.6687 7.73201 11.4771 7.71239 11.3516 7.6967C11.3437 7.6967 11.3368 7.69474 11.3289 7.69376C10.2996 7.58883 9.54201 7.53784 9.01453 7.53784C7.12094 7.53784 5.49604 8.00854 4.18525 8.93621C2.90903 9.83936 1.87877 11.0789 1.12509 12.6184C0.378322 14.1453 0 15.8918 0 17.8108C0 20.3095 0.607488 22.2295 1.80567 23.52C3.0246 24.8331 4.44108 25.4989 6.01561 25.4989C7.11403 25.4989 8.30629 25.1263 9.5588 24.3898C10.1396 24.0486 10.6829 23.6289 11.1857 23.1337C11.2578 23.5759 11.3368 23.9721 11.4237 24.3251C11.5324 24.7635 11.9285 25.0724 12.3829 25.0724H15.0687C15.3877 25.0724 15.687 24.9194 15.8717 24.6625C16.0574 24.4055 16.1058 24.0751 16.0031 23.775L16.0041 23.776ZM6.1213 13.1195C6.99154 12.1174 8.0465 11.63 9.34642 11.63C9.83241 11.63 10.3569 11.6829 10.9111 11.7888V17.3401C10.2364 18.4953 9.47879 19.4259 8.65695 20.1094C7.8845 20.7517 7.18219 21.092 6.62804 21.092C6.47691 21.092 6.0166 21.092 5.44566 20.3261C4.99918 19.727 4.77199 18.763 4.77199 17.4617C4.77199 15.6123 5.22538 14.1512 6.12032 13.1195H6.1213Z"/>
<path d="M26.0764 1.10995C25.5104 0.70495 24.9356 0.5 24.3676 0.5C23.7996 0.5 23.2385 0.70495 22.6725 1.10995C22.2152 1.43748 21.6689 2.06507 21.6689 3.19279C21.6689 4.32051 22.2142 4.93438 22.6725 5.2619C23.2366 5.66592 23.8075 5.87087 24.3666 5.87087C24.9257 5.87087 25.5104 5.66592 26.0755 5.26092C26.5328 4.9334 27.079 4.30874 27.079 3.19181C27.079 2.07488 26.5338 1.43748 26.0764 1.10995Z"/>
<path d="M29.9546 20.9813H26.6366V8.73819C26.6366 8.19689 26.1941 7.75757 25.6488 7.75757H18.7808C18.2355 7.75757 17.793 8.19689 17.793 8.73819V10.8691C17.793 11.4104 18.2355 11.8497 18.7808 11.8497H22.0849V24.0928C22.0849 24.6341 22.5274 25.0734 23.0727 25.0734H29.9546C30.4998 25.0734 30.9424 24.6341 30.9424 24.0928V21.9619C30.9424 21.4206 30.4998 20.9813 29.9546 20.9813Z"/>
<path d="M48.1822 8.20179C47.9995 7.92525 47.6893 7.75757 47.3555 7.75757H44.7704C44.3793 7.75757 44.0247 7.98703 43.8666 8.343L39.3801 18.4552L34.9696 8.34888C34.8136 7.98998 34.457 7.75855 34.0628 7.75855H31.2378C30.9049 7.75855 30.5947 7.92525 30.412 8.20179C30.2292 8.47833 30.1996 8.82743 30.332 9.13044L37.0519 24.485C37.2089 24.843 37.5645 25.0744 37.9577 25.0744H40.5842C40.9763 25.0744 41.3319 24.8439 41.489 24.487L48.2603 9.1324C48.3936 8.82939 48.365 8.47931 48.1822 8.20277V8.20179Z"/>
<path d="M63.967 7.75757H61.3919C60.8466 7.75757 60.4041 8.19689 60.4041 8.73819V17.4393C59.8035 18.517 59.0567 19.425 58.1825 20.1389C57.3301 20.8342 56.5606 21.1872 55.8948 21.1872C55.6765 21.1872 55.478 21.1107 55.2705 20.9469C55.0434 20.7675 54.8982 20.5527 54.8122 20.2703C54.7599 20.0987 54.6394 19.4995 54.6394 17.6315V8.73819C54.6394 8.19689 54.1968 7.75757 53.6516 7.75757H51.0764C50.5312 7.75757 50.0886 8.19689 50.0886 8.73819V17.3157C50.0886 19.7633 50.2496 21.3284 50.5944 22.2443C50.9648 23.2259 51.6246 24.0261 52.5561 24.6213C53.4668 25.2038 54.4833 25.499 55.5768 25.499C56.7759 25.499 57.9771 25.1293 59.1476 24.4007C59.5812 24.13 60.001 23.8084 60.4041 23.4367V24.0918C60.4041 24.6331 60.8466 25.0724 61.3919 25.0724H63.967C64.5123 25.0724 64.9548 24.6331 64.9548 24.0918V8.73819C64.9548 8.19689 64.5123 7.75757 63.967 7.75757Z"/>
<path d="M80.7653 16.7401C80.0067 15.9419 78.7818 15.2437 77.0196 14.6082L75.2742 13.9757C73.8784 13.4717 73.2048 13.1275 72.8857 12.9275C72.8837 12.9265 72.8818 12.9245 72.8788 12.9235C72.5686 12.7323 72.543 12.5784 72.543 12.4371C72.543 12.345 72.543 12.1292 73.0003 11.8468C73.4537 11.5664 74.1382 11.4251 75.0371 11.4251C76.4141 11.4251 77.9165 11.7115 79.5029 12.2753C79.6116 12.3136 79.7242 12.3332 79.8358 12.3332C80.0363 12.3332 80.2358 12.2724 80.4047 12.1547C80.6675 11.9713 80.8236 11.6723 80.8236 11.3526V9.02948C80.8236 8.60487 80.548 8.22831 80.141 8.09691C78.5694 7.59091 76.8863 7.33398 75.1359 7.33398C72.6655 7.33398 70.8914 7.80861 69.713 8.78531C68.498 9.79241 67.8816 11.0957 67.8816 12.6588C67.8816 13.7806 68.2105 14.7534 68.8575 15.5516C69.4838 16.341 70.7679 17.0922 72.8976 17.9159L74.6766 18.6141L75.5587 18.9701C76.8981 19.5133 77.1668 19.7781 77.1925 19.8065C77.2942 19.9183 77.3377 20.038 77.3377 20.2056C77.3377 20.4224 77.2833 20.6832 76.8823 20.9754C76.6591 21.1382 76.0733 21.4108 74.6558 21.4108C73.9328 21.4108 73.0211 21.2833 71.9473 21.0313C70.9102 20.7881 69.9115 20.3596 68.978 19.7555C68.8151 19.6496 68.6264 19.5967 68.4387 19.5967C68.2767 19.5967 68.1157 19.6359 67.9685 19.7153C67.6495 19.8869 67.4509 20.2174 67.4509 20.5773V23.2848C67.4509 23.6859 67.6979 24.0477 68.0732 24.1958C70.2661 25.0627 72.4392 25.503 74.5314 25.503C77.0562 25.503 78.8786 25.0077 80.1025 23.9889C81.3609 22.9406 81.999 21.5854 81.999 19.9585C81.999 18.6876 81.5832 17.606 80.7643 16.7431L80.7653 16.7401Z"/>
</svg>
