<svg xmlns="http://www.w3.org/2000/svg" width="90" height="90" fill="none"><rect width="89" height="89" x=".5" y=".5" fill="#fff" rx="5.5"/><rect width="89" height="89" x=".5" y=".5" stroke="#99A1B7" rx="5.5"/><path fill="#D9D9D9" d="M68.684 67.368h-3.947V31.842a1.29 1.29 0 0 0-.895-1.316L54.211 26.5v40.868h-2.632V21.316A1.316 1.316 0 0 0 50.263 20H26.58a1.316 1.316 0 0 0-1.316 1.316v46.052h-3.947a1.315 1.315 0 1 0 0 2.632h47.368a1.315 1.315 0 1 0 0-2.632ZM58.158 35.79h2.631a1.316 1.316 0 0 1 1.316 1.315 1.342 1.342 0 0 1-1.316 1.316h-2.631a1.343 1.343 0 0 1-1.316-1.316 1.315 1.315 0 0 1 1.316-1.316Zm0 7.894h2.631a1.316 1.316 0 0 1 0 2.632h-2.631a1.315 1.315 0 1 1 0-2.632Zm0 7.895h2.631a1.342 1.342 0 0 1 1.316 1.316 1.316 1.316 0 0 1-1.316 1.316h-2.631a1.315 1.315 0 0 1-1.316-1.316 1.342 1.342 0 0 1 1.316-1.316Zm0 7.895h2.631a1.316 1.316 0 0 1 0 2.631h-2.631a1.316 1.316 0 0 1 0-2.631Zm-17.105-31.58h2.631a1.316 1.316 0 0 1 0 2.632h-2.631a1.316 1.316 0 0 1 0-2.631Zm0 7.895h2.631a1.315 1.315 0 1 1 0 2.632h-2.631a1.316 1.316 0 0 1 0-2.632Zm0 7.895h2.631a1.315 1.315 0 1 1 0 2.632h-2.631a1.316 1.316 0 0 1 0-2.632Zm0 7.895h2.631a1.316 1.316 0 0 1 0 2.632h-2.631a1.316 1.316 0 0 1 0-2.632ZM33 27.895h2.79a1.316 1.316 0 0 1 0 2.631h-2.632a1.315 1.315 0 1 1 0-2.631H33Zm0 7.894h2.79a1.316 1.316 0 0 1 0 2.632h-2.632a1.316 1.316 0 0 1 0-2.632H33Zm0 7.895h2.79a1.316 1.316 0 0 1 0 2.632h-2.632a1.315 1.315 0 1 1 0-2.632H33Zm0 7.895h2.79a1.316 1.316 0 0 1 0 2.632h-2.632a1.315 1.315 0 1 1 0-2.632H33Zm6.737 15.79v-5.264h-2.632v5.263h-2.631v-6.657a1.316 1.316 0 0 1 1.316-1.237h5.263a1.315 1.315 0 0 1 1.315 1.316v6.578h-2.631Z"/></svg>