<svg width="12" height="12" viewBox="0 0 12 12" fill="none" xmlns="http://www.w3.org/2000/svg">
  <g clip-path="url(#clip0_995_24004)">
    <path d="M6 7.66667H8.77778M6 4.33333H8.77778M2.33333 1H9.66667C10.403 1 11 1.59695 11 2.33333V9.66667C11 10.403 10.403 11 9.66667 11H2.33333C1.59695 11 1 10.403 1 9.66667V2.33333C1 1.59695 1.59695 1 2.33333 1ZM4.33333 7.66667C4.33333 7.97349 4.0846 8.22222 3.77778 8.22222C3.47095 8.22222 3.22222 7.97349 3.22222 7.66667C3.22222 7.35984 3.47095 7.11111 3.77778 7.11111C4.0846 7.11111 4.33333 7.35984 4.33333 7.66667ZM4.33333 4.33333C4.33333 4.64016 4.0846 4.88889 3.77778 4.88889C3.47095 4.88889 3.22222 4.64016 3.22222 4.33333C3.22222 4.02651 3.47095 3.77778 3.77778 3.77778C4.0846 3.77778 4.33333 4.02651 4.33333 4.33333Z" stroke="currentColor" stroke-miterlimit="10" stroke-linecap="round" stroke-linejoin="round"/>
  </g>
  <defs>
    <clipPath id="clip0_995_24004">
      <rect width="12" height="12" fill="white"/>
    </clipPath>
  </defs>
</svg>
