<svg width="20" height="20" viewBox="0 0 20 20" fill="none" xmlns="http://www.w3.org/2000/svg">
  <g clip-path="url(#clip0_995_23935)">
    <path d="M6.66669 15.0001H2.50002C2.21121 15.0001 1.94298 14.8505 1.79115 14.6049C1.63931 14.3592 1.6255 14.0524 1.75467 13.7941L3.33335 10.6367V8.33342C3.33335 4.65152 6.31812 1.66675 10 1.66675C13.6819 1.66675 16.6667 4.65152 16.6667 8.33342V10.6367L18.2454 13.7941C18.3745 14.0524 18.3607 14.3592 18.2089 14.6049C18.0571 14.8505 17.7888 15.0001 17.5 15.0001H13.3334M6.66669 15.0001H13.3334M6.66669 15.0001C6.66669 16.841 8.15907 18.3334 10 18.3334C11.841 18.3334 13.3334 16.841 13.3334 15.0001" stroke="#4B5675" stroke-width="1.5" stroke-linecap="round" stroke-linejoin="round"/>
  </g>
  <defs>
    <clipPath id="clip0_995_23935">
      <rect width="20" height="20" fill="white"/>
    </clipPath>
  </defs>
</svg>
