<svg width="8" height="21" viewBox="0 0 8 21" fill="none" xmlns="http://www.w3.org/2000/svg">
<path d="M3.5 15.1638C3.5 15.44 3.72386 15.6638 4 15.6638C4.27614 15.6638 4.5 15.44 4.5 15.1638L3.5 15.1638ZM4.35355 4.81026C4.15829 4.615 3.84171 4.615 3.64645 4.81026L0.464466 7.99225C0.269204 8.18751 0.269204 8.50409 0.464466 8.69935C0.659728 8.89461 0.97631 8.89461 1.17157 8.69935L4 5.87092L6.82843 8.69935C7.02369 8.89461 7.34027 8.89461 7.53553 8.69935C7.7308 8.50409 7.7308 8.18751 7.53553 7.99225L4.35355 4.81026ZM4.5 15.1638L4.5 5.16382L3.5 5.16382L3.5 15.1638L4.5 15.1638Z" fill="#BED935"/>
</svg>
